<?xml version="1.0" encoding="UTF-8"?>
<svg xmlns="http://www.w3.org/2000/svg" xmlns:xlink="http://www.w3.org/1999/xlink" width="375pt" height="374.999991pt" viewBox="0 0 375 374.999991" version="1.2">
<defs>
<clipPath id="clip1">
  <path d="M 64.902344 51.007812 L 310.152344 51.007812 L 310.152344 324.007812 L 64.902344 324.007812 Z M 64.902344 51.007812 "/>
</clipPath>
</defs>
<g id="surface1">
<rect x="0" y="0" width="375" height="374.999991" style="fill:rgb(100%,100%,100%);fill-opacity:1;stroke:none;"/>
<rect x="0" y="0" width="375" height="374.999991" style="fill:rgb(100%,100%,100%);fill-opacity:1;stroke:none;"/>
<rect x="0" y="0" width="375" height="374.999991" style="fill:rgb(100%,87.059021%,34.899902%);fill-opacity:1;stroke:none;"/>
<g clip-path="url(#clip1)" clip-rule="nonzero">
<path style=" stroke:none;fill-rule:nonzero;fill:rgb(1.179504%,59.609985%,61.959839%);fill-opacity:1;" d="M 207.847656 135.148438 L 137.339844 205.644531 C 136.929688 206.058594 136.496094 206.449219 136.046875 206.820312 C 135.59375 207.191406 135.125 207.539062 134.640625 207.863281 C 134.15625 208.183594 133.65625 208.484375 133.140625 208.761719 C 132.625 209.035156 132.101562 209.285156 131.5625 209.507812 C 131.023438 209.730469 130.472656 209.925781 129.914062 210.097656 C 129.355469 210.265625 128.789062 210.40625 128.21875 210.519531 C 127.644531 210.636719 127.070312 210.71875 126.488281 210.777344 C 125.910156 210.835938 125.328125 210.863281 124.742188 210.863281 C 124.160156 210.863281 123.578125 210.835938 122.996094 210.777344 C 122.417969 210.71875 121.839844 210.636719 121.265625 210.519531 C 120.695312 210.40625 120.128906 210.265625 119.570312 210.097656 C 119.011719 209.925781 118.464844 209.730469 117.925781 209.507812 C 117.386719 209.285156 116.859375 209.035156 116.34375 208.761719 C 115.832031 208.484375 115.332031 208.183594 114.84375 207.863281 C 114.359375 207.539062 113.890625 207.191406 113.441406 206.820312 C 112.988281 206.449219 112.558594 206.058594 112.144531 205.644531 C 111.734375 205.234375 111.339844 204.800781 110.972656 204.351562 C 110.601562 203.898438 110.253906 203.433594 109.929688 202.945312 C 109.605469 202.460938 109.304688 201.960938 109.03125 201.449219 C 108.757812 200.933594 108.507812 200.40625 108.285156 199.867188 C 108.0625 199.328125 107.863281 198.78125 107.695312 198.222656 C 107.527344 197.664062 107.382812 197.097656 107.269531 196.527344 C 107.15625 195.953125 107.070312 195.378906 107.011719 194.796875 C 106.957031 194.214844 106.929688 193.632812 106.929688 193.050781 C 106.929688 192.46875 106.957031 191.886719 107.011719 191.304688 C 107.070312 190.722656 107.15625 190.148438 107.269531 189.574219 C 107.382812 189.003906 107.527344 188.4375 107.695312 187.878906 C 107.863281 187.320312 108.0625 186.773438 108.285156 186.234375 C 108.507812 185.695312 108.757812 185.167969 109.03125 184.652344 C 109.304688 184.140625 109.605469 183.640625 109.929688 183.15625 C 110.253906 182.667969 110.601562 182.203125 110.972656 181.75 C 111.34375 181.300781 111.734375 180.867188 112.144531 180.457031 L 182.675781 110.019531 L 213.371094 51.007812 L 152.980469 80.335938 L 82.421875 150.738281 C 59.085938 174.070312 59.085938 212.03125 82.421875 235.367188 C 105.757812 258.703125 143.730469 258.699219 167.066406 235.367188 L 237.574219 164.871094 C 237.988281 164.457031 238.421875 164.0625 238.875 163.691406 C 239.328125 163.320312 239.796875 162.96875 240.285156 162.644531 C 240.773438 162.316406 241.273438 162.015625 241.792969 161.738281 C 242.308594 161.464844 242.835938 161.210938 243.378906 160.988281 C 243.921875 160.761719 244.472656 160.566406 245.035156 160.394531 C 245.59375 160.226562 246.164062 160.082031 246.738281 159.96875 C 247.3125 159.851562 247.890625 159.765625 248.476562 159.710938 C 249.058594 159.652344 249.644531 159.621094 250.230469 159.621094 C 250.816406 159.621094 251.402344 159.652344 251.984375 159.707031 C 252.570312 159.765625 253.148438 159.851562 253.722656 159.964844 C 254.296875 160.078125 254.867188 160.222656 255.429688 160.390625 C 255.988281 160.5625 256.539062 160.757812 257.082031 160.984375 C 257.625 161.207031 258.152344 161.457031 258.671875 161.734375 C 259.1875 162.011719 259.691406 162.3125 260.179688 162.636719 C 260.664062 162.964844 261.136719 163.3125 261.589844 163.683594 C 262.042969 164.054688 262.476562 164.449219 262.890625 164.863281 C 263.304688 165.277344 263.699219 165.710938 264.070312 166.164062 C 264.445312 166.617188 264.792969 167.089844 265.117188 167.574219 C 265.445312 168.0625 265.746094 168.566406 266.019531 169.082031 C 266.296875 169.601562 266.546875 170.128906 266.773438 170.671875 C 266.996094 171.210938 267.195312 171.765625 267.363281 172.324219 C 267.535156 172.886719 267.675781 173.453125 267.792969 174.03125 C 267.90625 174.605469 267.992188 175.183594 268.046875 175.765625 C 268.105469 176.351562 268.132812 176.933594 268.132812 177.523438 C 268.132812 178.109375 268.105469 178.691406 268.046875 179.277344 C 267.992188 179.859375 267.90625 180.4375 267.789062 181.015625 C 267.675781 181.589844 267.53125 182.15625 267.363281 182.71875 C 267.191406 183.277344 266.996094 183.832031 266.769531 184.371094 C 266.546875 184.914062 266.292969 185.441406 266.019531 185.960938 C 265.742188 186.476562 265.441406 186.980469 265.113281 187.464844 C 264.789062 187.953125 264.4375 188.425781 264.066406 188.875 C 263.695312 189.328125 263.300781 189.765625 262.886719 190.179688 L 191.03125 262.023438 L 191.03125 262.007812 L 181.703125 271.335938 L 180.785156 272.25 L 164.910156 288.109375 C 164.421875 288.597656 163.960938 289.105469 163.523438 289.640625 C 163.089844 290.171875 162.679688 290.726562 162.296875 291.296875 C 161.914062 291.871094 161.558594 292.460938 161.234375 293.070312 C 160.910156 293.679688 160.617188 294.300781 160.355469 294.9375 C 160.089844 295.574219 159.859375 296.222656 159.660156 296.882812 C 159.460938 297.542969 159.292969 298.210938 159.160156 298.886719 C 159.027344 299.5625 158.925781 300.242188 158.859375 300.925781 C 158.792969 301.613281 158.757812 302.300781 158.757812 302.988281 C 158.761719 303.679688 158.792969 304.367188 158.863281 305.050781 C 158.929688 305.738281 159.03125 306.417969 159.167969 307.09375 C 159.300781 307.769531 159.46875 308.4375 159.671875 309.097656 C 159.871094 309.753906 160.105469 310.402344 160.367188 311.039062 C 160.632812 311.675781 160.925781 312.296875 161.253906 312.90625 C 161.578125 313.511719 161.933594 314.101562 162.316406 314.675781 C 162.699219 315.246094 163.109375 315.800781 163.546875 316.332031 C 163.984375 316.863281 164.449219 317.375 164.933594 317.859375 C 165.421875 318.347656 165.933594 318.808594 166.464844 319.246094 C 166.996094 319.683594 167.550781 320.09375 168.121094 320.476562 C 168.695312 320.859375 169.285156 321.210938 169.894531 321.535156 C 170.5 321.859375 171.125 322.15625 171.761719 322.417969 C 172.394531 322.683594 173.042969 322.914062 173.703125 323.113281 C 174.363281 323.3125 175.03125 323.480469 175.707031 323.617188 C 176.382812 323.75 177.0625 323.851562 177.75 323.917969 C 178.433594 323.984375 179.121094 324.019531 179.808594 324.019531 C 180.5 324.019531 181.1875 323.984375 181.871094 323.917969 C 182.558594 323.851562 183.238281 323.75 183.914062 323.617188 C 184.589844 323.480469 185.257812 323.3125 185.917969 323.113281 C 186.574219 322.914062 187.222656 322.683594 187.859375 322.417969 C 188.496094 322.15625 189.117188 321.859375 189.726562 321.535156 C 190.332031 321.210938 190.925781 320.859375 191.496094 320.476562 C 192.070312 320.09375 192.621094 319.683594 193.15625 319.246094 C 193.6875 318.808594 194.199219 318.347656 194.683594 317.859375 L 210.5625 301.984375 L 220.800781 291.746094 L 292.609375 219.898438 C 315.976562 196.535156 315.976562 158.515625 292.609375 135.148438 C 269.242188 111.785156 231.214844 111.785156 207.847656 135.148438 Z M 156.574219 92.6875 L 156.691406 80.972656 L 200.023438 59.90625 L 204.132812 64.019531 L 182.105469 106.371094 L 168.636719 104.75 L 169.398438 93.664062 Z M 217.679688 291.757812 L 210.535156 298.898438 L 183.863281 272.242188 L 191.011719 265.097656 Z M 217.679688 291.757812 "/>
</g>
</g>
</svg>
